<svg width="24" height="24" viewBox="0 0 24 24" fill="none" xmlns="http://www.w3.org/2000/svg">
<path fill-rule="evenodd" clip-rule="evenodd" d="M13 19C16.3137 19 19 16.3137 19 13C19 9.68629 16.3137 7 13 7C9.68629 7 7 9.68629 7 13C7 16.3137 9.68629 19 13 19Z" stroke="#191D26" stroke-width="2" stroke-linecap="round" stroke-linejoin="round"/>
<path fill-rule="evenodd" clip-rule="evenodd" d="M13 15C14.1046 15 15 14.1046 15 13C15 11.8954 14.1046 11 13 11C11.8954 11 11 11.8954 11 13C11 14.1046 11.8954 15 13 15Z" stroke="#191D26" stroke-width="2" stroke-linecap="round" stroke-linejoin="round"/>
<path d="M3.2962 7.81504C2.46905 9.35985 2 11.1251 2 13C2 19.0751 6.92487 24 13 24C19.0751 24 24 19.0751 24 13C24 6.92487 19.0751 2 13 2C11.0767 2 9.26864 2.49362 7.69567 3.36107L9.13111 4.87169C10.3031 4.31283 11.615 4 13 4C17.9706 4 22 8.02944 22 13C22 17.9706 17.9706 22 13 22C8.02944 22 4 17.9706 4 13C4 11.7051 4.27346 10.4741 4.76577 9.36158L3.2962 7.81504Z" fill="#191D26"/>
<path d="M13 13L8.56522 8.56522M4.13043 4.13043L5.17391 1L9.34783 5.17391L8.56522 8.56522M4.13043 4.13043L8.56522 8.56522M4.13043 4.13043L1 5.17391L5.17391 9.34783L8.56522 8.56522" stroke="#191D26" stroke-width="2" stroke-linecap="round" stroke-linejoin="round"/>
</svg>
